<svg xmlns="http://www.w3.org/2000/svg" viewBox="0 0 24 24" width="24" height="24" fill="#FFFFFF">
  <path d="M3,6c-0.55,0 -1,0.45 -1,1v13c0,1.1 0.9,2 2,2h13c0.55,0 1,-0.45 1,-1s-0.45,-1 -1,-1L5,20c-0.55,0 -1,-0.45 -1,-1L4,7c0,-0.55 -0.45,-1 -1,-1zM20,2L8,2c-1.1,0 -2,0.9 -2,2v12c0,1.1 0.9,2 2,2h12c1.1,0 2,-0.9 2,-2L22,4c0,-1.1 -0.9,-2 -2,-2zM18,11h-8c-0.55,0 -1,-0.45 -1,-1s0.45,-1 1,-1h8c0.55,0 1,0.45 1,1s-0.45,1 -1,1zM14,15h-4c-0.55,0 -1,-0.45 -1,-1s0.45,-1 1,-1h4c0.55,0 1,0.45 1,1s-0.45,1 -1,1zM18,7h-8c-0.55,0 -1,-0.45 -1,-1s0.45,-1 1,-1h8c0.55,0 1,0.45 1,1s-0.45,1 -1,1z"/>
</svg>
